<?xml version="1.0" encoding="UTF-8"?>
<svg width="92" height="32" viewBox="0 0 92 32" fill="none" xmlns="http://www.w3.org/2000/svg">
  <path d="M15.0557 9.87891L8.99991 13.5147V22.9999L15.0557 19.3641V9.87891Z" fill="#00A3FF"/>
  <path d="M22.9999 13.5147L16.9441 9.87891V19.3641L22.9999 22.9999V13.5147Z" fill="#00A3FF"/>
  <path d="M16 8L9 12.1339L16 16.2678L23 12.1339L16 8Z" fill="#00A3FF"/>
  <path d="M38.0234 10.9219V21H36.1016V10.9219H38.0234ZM44.3359 21H42.4141V14.8125H40.0156V13.2344H46.7344V14.8125H44.3359V21ZM52.2891 21H50.3672V10.9219H52.2891V21ZM58.6016 21H56.6797V14.8125H54.2812V13.2344H61V14.8125H58.6016V21ZM66.5547 21H64.6328V10.9219H66.5547V21ZM72.8672 21H70.9453V14.8125H68.5469V13.2344H75.2656V14.8125H72.8672V21ZM80.5203 21H78.5984V10.9219H80.5203V21ZM86.8328 21H84.9109V14.8125H82.5125V13.2344H89.2312V14.8125H86.8328V21Z" fill="currentColor"/>
</svg>